<svg xmlns="http://www.w3.org/2000/svg" viewBox="460 378 1000 328" role="img" aria-label="Lewis Group of Companies">
<title>Lewis Group of Companies</title>
<path fill="#FFFFFF" d="M482.8,391h54.8v161.9h92.1v42.8H482.8V391z"/>
<path fill="#FFFFFF" d="M707.6,552.8h110.5v42.8H653.4V391h163.8v42.7H707.6v37.8h100.3v39.7H707.6V552.8z"/>
<path fill="#FFFFFF" d="M1097.9,391h55.2L1100,595.7H1026L996.9,468l-28.8,127.7h-73.7L841.1,391h55.2l37.5,145.1L964.6,391h62.7
			l33.1,145.1L1097.9,391z"/>
<path fill="#FFFFFF" d="M1177.3,595.7V391h54.1v204.7H1177.3z"/>
<path fill="#FFFFFF" d="M1347,561.5c26.2,0,36-9.2,36-23.4s-8-20.3-23.4-22.5l-44.6-4.9c-36.9-4.3-58.1-25.3-58.1-60
			c0-38.5,29-64.9,88-64.9c63.1,0,88.4,30.2,91.1,66.5h-53.6c-2.2-16.3-14.5-27.1-37.6-27.1c-20.9,0-33.2,8.3-33.2,21.8
			c0,10.5,6.2,18.2,21.8,20l39.1,4c44.9,4.3,65.3,25.5,65.3,62.5c0,40.3-25.3,67.5-91.7,67.5c-66.5,0-90.8-35.1-93-71.7h52.6
			C1307.2,546.2,1318.3,561.5,1347,561.5L1347,561.5z"/>
<path fill="#FFFFFF" d="M594.4,683.3c0,4.7,0.8,7.8,1.2,9.5h-8.8c-0.5-1.5-1.1-4.4-1.1-9.1v-4.5c0-8.3-4.6-11.4-12.1-11.4h-14.6v25
			h-8.9V635h27.6c12.1,0,18.5,6.1,18.5,15.6c0,7.9-4.9,13-11.3,14.7c5.8,1.9,9.5,4.4,9.5,12.5V683.3z M586.8,651.3c0-5.6-3-9-10.1-9
			h-17.7v18.9h18C584.5,661.2,586.8,657.4,586.8,651.3z"/>
<path fill="#FFFFFF" d="M603.3,663.8c0-16.7,8.6-30.4,29.2-30.4c20.6,0,29.2,13.7,29.2,30.4c0,16.9-8.6,30.4-29.2,30.4
			C611.9,694.2,603.3,680.8,603.3,663.8z M632.6,686.8c14.1,0,19.9-7.8,19.9-23s-5.7-23-19.9-23c-14.1,0-19.9,7.8-19.9,23
			S618.4,686.8,632.6,686.8z"/>
<path fill="#FFFFFF" d="M670.3,635h8.9v35.4c0,13.5,5.4,16.3,15.1,16.3c9.7,0,15.1-2.8,15.1-16.3V635h8.9v36.7
			c0,14.3-7.9,22.4-24,22.4c-16.1,0-24-8-24-22.4V635z"/>
<path fill="#FFFFFF" d="M774.1,652.5c0,9.4-5.1,17.5-18,17.5h-18.2v22.7h-9V635h27.2C769,635,774.1,643.3,774.1,652.5z M764.7,652.5
			c0-5.9-2.6-10.2-10.8-10.2h-16v20.6h16C762.1,662.8,764.7,658.4,764.7,652.5z"/>
<path fill="#FFFFFF" d="M801.9,663.8c0-16.7,8.6-30.4,29.2-30.4c20.6,0,29.2,13.7,29.2,30.4c0,16.9-8.6,30.4-29.2,30.4
			C810.5,694.2,801.9,680.8,801.9,663.8z M831.2,686.8c14.1,0,19.9-7.8,19.9-23s-5.7-23-19.9-23c-14.1,0-19.9,7.8-19.9,23
			S817,686.8,831.2,686.8z"/>
<path fill="#FFFFFF" d="M878.2,642.2v18h32v7h-32v25.4h-8.9V635h43.5v7.2H878.2z"/>
<path fill="#FFFFFF" d="M1005.6,663.8c0-16.7,8.6-30.4,29.2-30.4c20.6,0,29.2,13.7,29.2,30.4c0,16.9-8.6,30.4-29.2,30.4
			C1014.1,694.2,1005.6,680.8,1005.6,663.8z M1034.8,686.8c14.1,0,19.9-7.8,19.9-23s-5.7-23-19.9-23c-14.1,0-19.9,7.8-19.9,23
			S1020.7,686.8,1034.8,686.8z"/>
<path fill="#FFFFFF" d="M1137.9,692.7h-8.9V642l-17.7,50.7h-11.8l-17.7-50.7v50.7h-8.9V635h15.5l17.1,49l17.1-49h15.4V692.7z"/>
<path fill="#FFFFFF" d="M1193.9,652.5c0,9.4-5.1,17.5-18,17.5h-18.2v22.7h-9V635h27.2C1188.7,635,1193.9,643.3,1193.9,652.5z
			 M1184.5,652.5c0-5.9-2.6-10.2-10.8-10.2h-16v20.6h16C1181.9,662.8,1184.5,658.4,1184.5,652.5z"/>
<path fill="#FFFFFF" d="M1234.5,679h-27.9l-5.1,13.7h-9l21.4-57.7h13.4l21.4,57.7h-9.1L1234.5,679z M1231.8,671.8l-11.3-30.4
			l-11.3,30.4H1231.8z"/>
<path fill="#FFFFFF" d="M1305.9,635v57.7h-15.4l-22.2-42.9c-1.6-3.3-3.1-6.3-4.2-9.1v52h-8.9V635h15.4l22.3,43.1
			c1.2,2.3,2.8,5.9,4.1,8.9v-52H1305.9z"/>
<path fill="#FFFFFF" d="M1383,685.5v7.2h-43.8V635h43.5v7.2h-34.6v17.4h32v7h-32v18.8H1383z"/>
<path fill="#FFFFFF" d="M1397.1,673.4c0.3,8.8,5.3,13.8,16.7,13.8c11.6,0,14.4-4,14.4-9.9c0-5.4-3.2-8.3-9.7-9.3l-13.4-1.9
			c-9.8-1.4-14.9-6.5-14.9-15.5c0-9.6,7.1-17.1,22.6-17.1c16.2,0,23.1,8.2,23.9,18.5h-8.7c-0.9-6.9-5.5-11.5-15.3-11.5
			c-9.4,0-13.4,4.1-13.4,9.9c0,4.3,2.3,7.4,7.7,8.2l14.1,2.1c10.1,1.5,16.1,6.1,16.1,15.6c0,11.4-6.9,18-23.4,18
			c-18.9,0-25.3-9.9-25.3-20.7H1397.1z"/>
<path fill="#FFFFFF" d="M1318.1,692.6V635h8.9v57.7H1318.1z"/>
<path fill="#FFFFFF" d="M989.3,673.3c-1.7,8.5-7.5,13.5-18.7,13.5c-13.7,0-19.6-8-19.6-23s6.2-23,19.9-23c10.7,0,16.3,4.6,18.1,12.7
			h9.2c-2.1-12.6-10.1-20.1-27.2-20.1c-20.4,0-29.4,13.4-29.4,30.4c0,17.2,8.8,30.4,29.1,30.4c17.7,0,25.9-8,27.8-20.9H989.3z"/>
<path fill="#FFFFFF" d="M506.6,670.4H531c-1.1,8.8-5.9,16.4-19.4,16.4c-14.4,0-19.9-8.2-19.9-23c0-15,5.9-23,19.9-23
			c11.4,0,17,4.3,18.7,12.7h9.3c-2.1-12.9-10.7-20.1-27.7-20.1c-20.5,0-29.6,13.3-29.6,30.4c0,17.2,8.6,30.4,28,30.4
			c11.2,0,18.6-5.4,21.3-13.7v12.2h8.1v-28.9h-33V670.4z"/>
</svg>